<svg width="46" height="39" viewBox="0 0 46 39" fill="none" xmlns="http://www.w3.org/2000/svg">
<path d="M23 0L0 20.6471H6.9V39H39.1V20.6471H46M25.3 34.4118H20.7V32.1176H25.3M26.45 26.5659V29.8235H19.55V26.5659C18.2346 25.8084 17.2065 24.6391 16.6252 23.2394C16.044 21.8396 15.942 20.2877 16.3351 18.8243C16.7282 17.3609 17.5945 16.0678 18.7995 15.1455C20.0046 14.2232 21.4811 13.7232 23 13.7232C24.5189 13.7232 25.9954 14.2232 27.2005 15.1455C28.4055 16.0678 29.2718 17.3609 29.6649 18.8243C30.058 20.2877 29.956 21.8396 29.3748 23.2394C28.7935 24.6391 27.7654 25.8084 26.45 26.5659Z" fill="#FFFDED"/>
<path d="M23 0L0 20.6471H6.9V39H39.1V20.6471H46M25.3 34.4118H20.7V32.1176H25.3M26.45 26.5659V29.8235H19.55V26.5659C18.2346 25.8084 17.2065 24.6391 16.6252 23.2394C16.044 21.8396 15.942 20.2877 16.3351 18.8243C16.7282 17.3609 17.5945 16.0678 18.7995 15.1455C20.0046 14.2232 21.4811 13.7232 23 13.7232C24.5189 13.7232 25.9954 14.2232 27.2005 15.1455C28.4055 16.0678 29.2718 17.3609 29.6649 18.8243C30.058 20.2877 29.956 21.8396 29.3748 23.2394C28.7935 24.6391 27.7654 25.8084 26.45 26.5659Z" fill="black" fill-opacity="0.2"/>
</svg>
