<svg class="svg_menu" width="36" height="36" viewBox="0 0 36 36" fill="none"
     xmlns="http://www.w3.org/2000/svg">
    <path d="M18.4999 12.4C20.0264 12.4 21.4904 12.99 22.5699 14.0402C23.6493 15.0904 24.2557 16.5148 24.2557 18C24.2557 19.4852 23.6493 20.9096 22.5699 21.9598C21.4904 23.01 20.0264 23.6 18.4999 23.6C16.9733 23.6 15.5093 23.01 14.4299 21.9598C13.3504 20.9096 12.744 19.4852 12.744 18C12.744 16.5148 13.3504 15.0904 14.4299 14.0402C15.5093 12.99 16.9733 12.4 18.4999 12.4ZM18.4999 15.2C17.7366 15.2 17.0046 15.495 16.4649 16.0201C15.9251 16.5452 15.6219 17.2574 15.6219 18C15.6219 18.7426 15.9251 19.4548 16.4649 19.9799C17.0046 20.505 17.7366 20.8 18.4999 20.8C19.2631 20.8 19.9951 20.505 20.5349 19.9799C21.0746 19.4548 21.3778 18.7426 21.3778 18C21.3778 17.2574 21.0746 16.5452 20.5349 16.0201C19.9951 15.495 19.2631 15.2 18.4999 15.2ZM15.6219 32C15.2622 32 14.96 31.748 14.9025 31.412L14.37 27.702C13.4635 27.352 12.6865 26.876 11.9382 26.316L8.35518 27.73C8.03861 27.842 7.65009 27.73 7.47741 27.422L4.59949 22.578C4.51142 22.4337 4.48037 22.2632 4.51215 22.0983C4.54393 21.9334 4.63637 21.7854 4.77217 21.682L7.80838 19.358L7.70765 18L7.80838 16.6L4.77217 14.318C4.63637 14.2146 4.54393 14.0666 4.51215 13.9017C4.48037 13.7368 4.51142 13.5663 4.59949 13.422L7.47741 8.578C7.65009 8.27 8.03861 8.144 8.35518 8.27L11.9382 9.67C12.6865 9.124 13.4635 8.648 14.37 8.298L14.9025 4.588C14.96 4.252 15.2622 4 15.6219 4H21.3778C21.7375 4 22.0397 4.252 22.0973 4.588L22.6297 8.298C23.5362 8.648 24.3133 9.124 25.0615 9.67L28.6445 8.27C28.9611 8.144 29.3496 8.27 29.5223 8.578L32.4002 13.422C32.5873 13.73 32.501 14.108 32.2276 14.318L29.1914 16.6L29.2921 18L29.1914 19.4L32.2276 21.682C32.501 21.892 32.5873 22.27 32.4002 22.578L29.5223 27.422C29.3496 27.73 28.9611 27.856 28.6445 27.73L25.0615 26.33C24.3133 26.876 23.5362 27.352 22.6297 27.702L22.0973 31.412C22.0397 31.748 21.7375 32 21.3778 32H15.6219ZM17.4206 6.8L16.8882 10.454C15.1615 10.804 13.6362 11.7 12.5282 12.946L9.06027 11.49L7.98105 13.31L11.0173 15.48C10.4417 17.1133 10.4417 18.8867 11.0173 20.52L7.96666 22.704L9.04588 24.524L12.5426 23.068C13.6506 24.3 15.1615 25.196 16.8738 25.532L17.4063 29.2H19.5935L20.1259 25.546C21.8383 25.196 23.3492 24.3 24.4572 23.068L27.9538 24.524L29.0331 22.704L25.9825 20.534C26.5581 18.896 26.5581 17.118 25.9825 15.48L29.0187 13.31L27.9395 11.49L24.4716 12.946C23.3408 11.6725 21.8071 10.8007 20.1115 10.468L19.5791 6.8H17.4206Z"
            fill="#8E8E93" />
</svg>