<svg class="svg_menu" width="36" height="36" viewBox="1 3 36 36" fill="none"
     xmlns="http://www.w3.org/2000/svg">
    <path d="M18.486 4C10.758 4 4.5 10.272 4.5 18C4.5 25.728 10.758 32 18.486 32C26.228 32 32.5 25.728 32.5 18C32.5 10.272 26.228 4 18.486 4ZM18.5 29.2C12.312 29.2 7.3 24.188 7.3 18C7.3 11.812 12.312 6.8 18.5 6.8C24.688 6.8 29.7 11.812 29.7 18C29.7 24.188 24.688 29.2 18.5 29.2Z"
            fill="#8E8E93" />
    <path d="M19.25 10.5H17V19.5L24.875 24.225L26 22.38L19.25 18.375V10.5Z" fill="#8E8E93" />
</svg>