<svg width="28" height="28" viewBox="0 0 28 28" fill="none" xmlns="http://www.w3.org/2000/svg">
<path d="M27.2222 0L26.9733 0.0466666L18.6667 3.26667L9.33333 0L0.56 2.95556C0.233333 3.06444 0 3.34444 0 3.70222V27.2222C0 27.4285 0.0819444 27.6263 0.227806 27.7722C0.373668 27.9181 0.571498 28 0.777778 28L1.02667 27.9533L9.33333 24.7333L18.6667 28L27.44 25.0444C27.7667 24.9356 28 24.6556 28 24.2978V0.777778C28 0.571498 27.9181 0.373668 27.7722 0.227806C27.6263 0.0819444 27.4285 0 27.2222 0ZM10.8889 3.84222L17.1111 6.02V24.1578L10.8889 21.98V3.84222ZM3.11111 5.38222L7.77778 3.81111V22.0111L3.11111 23.8156V5.38222ZM24.8889 22.6178L20.2222 24.1889V6.00444L24.8889 4.2V22.6178Z" fill="#8E8E93"/>
</svg>
