<svg class="svg_menu" width="36" height="36" viewBox="0 0 36 36" fill="none"
     xmlns="http://www.w3.org/2000/svg">
    <path d="M29.8333 5C30.5848 5 31.3054 5.32924 31.8368 5.91529C32.3682 6.50134 32.6667 7.2962 32.6667 8.125V23.75C32.6667 25.4844 31.4058 26.875 29.8333 26.875H35.5V30H1.5V26.875H7.16667C6.41522 26.875 5.69455 26.5458 5.1632 25.9597C4.63184 25.3737 4.33333 24.5788 4.33333 23.75V8.125C4.33333 6.39062 5.59417 5 7.16667 5H29.8333ZM29.8333 8.125H7.16667V23.75H29.8333V8.125ZM18.5 17.5C21.6308 17.5 24.1667 18.9062 24.1667 20.625V22.1875H12.8333V20.625C12.8333 18.9062 15.3692 17.5 18.5 17.5ZM18.5 9.6875C19.2514 9.6875 19.9721 10.0167 20.5035 10.6028C21.0348 11.1888 21.3333 11.9837 21.3333 12.8125C21.3333 13.6413 21.0348 14.4362 20.5035 15.0222C19.9721 15.6083 19.2514 15.9375 18.5 15.9375C16.9275 15.9375 15.6667 14.5469 15.6667 12.8125C15.6667 11.0781 16.9417 9.6875 18.5 9.6875Z"
            fill="#8E8E93" />
</svg>