<svg width="35" height="25" viewBox="0 0 35 25" fill="none" xmlns="http://www.w3.org/2000/svg">
<path d="M28.8333 0C29.5848 0 30.3054 0.32924 30.8368 0.915291C31.3682 1.50134 31.6667 2.2962 31.6667 3.125V18.75C31.6667 20.4844 30.4058 21.875 28.8333 21.875H34.5V25H0.5V21.875H6.16667C5.41522 21.875 4.69455 21.5458 4.1632 20.9597C3.63184 20.3737 3.33333 19.5788 3.33333 18.75V3.125C3.33333 1.39062 4.59417 0 6.16667 0H28.8333ZM28.8333 3.125H6.16667V18.75H28.8333V3.125ZM17.5 12.5C20.6308 12.5 23.1667 13.9062 23.1667 15.625V17.1875H11.8333V15.625C11.8333 13.9062 14.3692 12.5 17.5 12.5ZM17.5 4.6875C18.2514 4.6875 18.9721 5.01674 19.5035 5.60279C20.0348 6.18884 20.3333 6.9837 20.3333 7.8125C20.3333 8.6413 20.0348 9.43616 19.5035 10.0222C18.9721 10.6083 18.2514 10.9375 17.5 10.9375C15.9275 10.9375 14.6667 9.54688 14.6667 7.8125C14.6667 6.07812 15.9417 4.6875 17.5 4.6875Z" fill="#8E8E93"/>
</svg>
