<svg width="29" height="28" viewBox="0 0 29 28" fill="none" xmlns="http://www.w3.org/2000/svg">
<path d="M14.4999 8.4C16.0264 8.4 17.4904 8.99 18.5699 10.0402C19.6493 11.0904 20.2557 12.5148 20.2557 14C20.2557 15.4852 19.6493 16.9096 18.5699 17.9598C17.4904 19.01 16.0264 19.6 14.4999 19.6C12.9733 19.6 11.5093 19.01 10.4299 17.9598C9.35043 16.9096 8.74402 15.4852 8.74402 14C8.74402 12.5148 9.35043 11.0904 10.4299 10.0402C11.5093 8.99 12.9733 8.4 14.4999 8.4M14.4999 11.2C13.7366 11.2 13.0046 11.495 12.4649 12.0201C11.9251 12.5452 11.6219 13.2574 11.6219 14C11.6219 14.7426 11.9251 15.4548 12.4649 15.9799C13.0046 16.505 13.7366 16.8 14.4999 16.8C15.2631 16.8 15.9951 16.505 16.5349 15.9799C17.0746 15.4548 17.3778 14.7426 17.3778 14C17.3778 13.2574 17.0746 12.5452 16.5349 12.0201C15.9951 11.495 15.2631 11.2 14.4999 11.2ZM11.6219 28C11.2622 28 10.96 27.748 10.9025 27.412L10.37 23.702C9.4635 23.352 8.68646 22.876 7.9382 22.316L4.35518 23.73C4.03861 23.842 3.65009 23.73 3.47741 23.422L0.599491 18.578C0.51142 18.4337 0.480372 18.2632 0.512152 18.0983C0.543933 17.9334 0.636366 17.7854 0.772166 17.682L3.80838 15.358L3.70765 14L3.80838 12.6L0.772166 10.318C0.636366 10.2146 0.543933 10.0666 0.512152 9.90168C0.480372 9.73677 0.51142 9.56625 0.599491 9.422L3.47741 4.578C3.65009 4.27 4.03861 4.144 4.35518 4.27L7.9382 5.67C8.68646 5.124 9.4635 4.648 10.37 4.298L10.9025 0.588C10.96 0.252 11.2622 0 11.6219 0H17.3778C17.7375 0 18.0397 0.252 18.0973 0.588L18.6297 4.298C19.5362 4.648 20.3133 5.124 21.0615 5.67L24.6445 4.27C24.9611 4.144 25.3496 4.27 25.5223 4.578L28.4002 9.422C28.5873 9.73 28.501 10.108 28.2276 10.318L25.1914 12.6L25.2921 14L25.1914 15.4L28.2276 17.682C28.501 17.892 28.5873 18.27 28.4002 18.578L25.5223 23.422C25.3496 23.73 24.9611 23.856 24.6445 23.73L21.0615 22.33C20.3133 22.876 19.5362 23.352 18.6297 23.702L18.0973 27.412C18.0397 27.748 17.7375 28 17.3778 28H11.6219M13.4206 2.8L12.8882 6.454C11.1615 6.804 9.63617 7.7 8.52817 8.946L5.06027 7.49L3.98105 9.31L7.01726 11.48C6.44168 13.1133 6.44168 14.8867 7.01726 16.52L3.96666 18.704L5.04588 20.524L8.54256 19.068C9.65056 20.3 11.1615 21.196 12.8738 21.532L13.4063 25.2H15.5935L16.1259 21.546C17.8383 21.196 19.3492 20.3 20.4572 19.068L23.9538 20.524L25.0331 18.704L21.9825 16.534C22.558 14.896 22.558 13.118 21.9825 11.48L25.0187 9.31L23.9395 7.49L20.4716 8.946C19.3408 7.67245 17.8071 6.80074 16.1115 6.468L15.5791 2.8H13.4206V2.8Z" fill="#8E8E93"/>
</svg>
